<svg width="98" height="65" viewBox="0 0 98 65" fill="none" xmlns="http://www.w3.org/2000/svg">
<g clip-path="url(#clip0_2144_639)">
<path d="M0.700012 8.14004C0.700012 3.66653 4.32651 0.0400391 8.80001 0.0400391H89.8C94.2735 0.0400391 97.9 3.66653 97.9 8.14004V56.74C97.9 61.2135 94.2735 64.84 89.8 64.84H8.80001C4.3265 64.84 0.700012 61.2135 0.700012 56.74V8.14004Z" fill="#1A1A1A"/>
<path d="M76.0515 50.9256C79.7847 50.9256 81.5418 49.5011 83.0766 45.1833L89.8004 26.3245H85.9074L81.3985 40.9148H81.3195L76.8106 26.3442H72.8073L79.2939 44.294L78.9465 45.3858C78.7011 46.9486 77.2981 48.0635 75.7188 47.9482C75.4174 47.9482 74.8328 47.9169 74.5957 47.8856V50.8498C75.0782 50.9157 75.5657 50.947 76.0515 50.9453V50.9256ZM63.0782 41.4813C61.0362 41.4813 59.7402 40.4933 59.7402 38.998C59.7402 37.4484 60.9901 36.546 63.3795 36.4027L67.6348 36.1343V37.5274C67.5409 39.823 65.6027 41.6098 63.3071 41.5159C63.2297 41.5126 63.1539 41.506 63.0782 41.4995V41.4813ZM62.0506 44.4077C64.3676 44.4702 66.5348 43.2631 67.699 41.259H67.7781V44.2232H71.3219V31.9465C71.3219 28.3862 68.4747 26.0923 64.091 26.0923C60.0251 26.0923 57.0181 28.4175 56.9077 31.6139H60.3577C60.7694 29.9885 62.3141 28.9165 63.9806 29.0976C66.3223 29.0976 67.6348 30.1894 67.6348 32.1985V33.5587L62.8592 33.8436C58.4129 34.112 56.0086 35.9317 56.0086 39.0968C56.0053 42.3064 58.4886 44.4258 62.049 44.4258L62.0506 44.4077ZM41.5137 22.7806H45.9271C49.2502 22.7806 51.149 24.5525 51.149 27.6699C51.149 30.7872 49.2502 32.574 45.9122 32.574H41.5137V22.7806ZM37.685 19.5529V44.2183H41.5137V35.8099H46.8147C51.1325 36.0421 54.8196 32.7304 55.0518 28.4126C55.065 28.1672 55.0666 27.9235 55.0568 27.6781C55.261 23.408 51.9658 19.7818 47.6957 19.576C47.4437 19.5645 47.1934 19.5661 46.9415 19.5776L37.685 19.5529ZM24.9768 24.1557C22.7767 24.0289 20.8945 25.4056 19.8504 25.4056C18.8064 25.4056 17.1925 24.2199 15.4519 24.2528C13.1464 24.3121 11.0451 25.5883 9.93026 27.6073C7.55726 31.6896 9.31272 37.7333 11.6067 41.0548C12.7298 42.7016 14.0768 44.5048 15.8471 44.4406C17.5235 44.378 18.1888 43.3488 20.2143 43.3488C22.2399 43.3488 22.841 44.4406 24.6129 44.4077C26.4474 44.3764 27.6034 42.7609 28.7298 41.1141C29.5236 39.9482 30.1411 38.6719 30.5643 37.3265C28.4021 36.3813 27.0007 34.252 26.9892 31.8922C27.0221 29.8107 28.1123 27.8905 29.8842 26.7987C28.7545 25.1948 26.9414 24.21 24.9801 24.1408L24.9768 24.1557ZM23.6034 21.977C22.64 23.1906 21.1662 23.8872 19.6166 23.8592C19.5178 22.3475 20.0316 20.8605 21.041 19.7308C22.0456 18.5649 23.4618 17.8337 24.9933 17.6904C25.102 19.245 24.603 20.7798 23.6001 21.972" fill="white"/>
</g>
<defs>
<clipPath id="clip0_2144_639">
<rect width="97.2" height="64.8" fill="white" transform="translate(0.700012 0.0405273)"/>
</clipPath>
</defs>
</svg>
