<svg width="24" height="16" viewBox="0 0 24 16" fill="none" xmlns="http://www.w3.org/2000/svg">
<g clip-path="url(#clip0_9_1638)">
<path d="M0 2C0 0.895431 0.895431 0 2 0H22C23.1046 0 24 0.895431 24 2V14C24 15.1046 23.1046 16 22 16H2C0.89543 16 0 15.1046 0 14V2Z" fill="#311C02"/>
<path d="M18 8.00254C17.9987 11.3164 15.311 14.0016 11.9975 14C8.68391 13.9987 5.99873 11.3113 6 7.99746C6.00127 4.68486 8.68677 2.00032 11.9994 2C15.3132 1.99968 17.9997 4.68613 18 8V8.00254Z" fill="#F7931A"/>
<path d="M13.0938 6.8361C13.0938 7.60284 11.89 7.51335 11.507 7.51335V6.15822C11.89 6.15759 13.0922 6.03572 13.0922 6.83547L13.0938 6.8361ZM13.4092 8.944C13.4092 9.78659 11.9668 9.69075 11.5066 9.69107V8.19694C11.9668 8.19662 13.4095 8.06428 13.4095 8.94337L13.4092 8.944ZM14.3588 6.53207C14.2816 5.7282 13.5876 5.45876 12.7117 5.38196V4.26707H12.0331V5.35276C11.8548 5.35276 11.6723 5.35625 11.4911 5.36006V4.26739H10.8129V5.38196C10.666 5.38482 10.5216 5.38767 10.381 5.38767V5.38418H9.44476V6.10998C9.44476 6.10998 9.94587 6.10046 9.93762 6.10998C10.1271 6.08555 10.3013 6.2182 10.328 6.40735V7.67679C10.3518 7.67679 10.3759 7.67837 10.3997 7.68155H10.328V9.46098C10.32 9.59332 10.2067 9.69392 10.0747 9.68599H10.0741C10.0827 9.69361 9.58091 9.68599 9.58091 9.68599L9.44603 10.4965H10.3292C10.4936 10.4965 10.6552 10.4994 10.8139 10.5007V11.6282H11.4917V10.5124C11.6777 10.5162 11.858 10.5178 12.0338 10.5178V11.6285H12.7113V10.5029C13.8538 10.4375 14.651 10.15 14.7501 9.07856C14.83 8.21566 14.4241 7.83071 13.7767 7.6752C14.208 7.47082 14.447 7.00113 14.3588 6.53207Z" fill="white"/>
</g>
<defs>
<clipPath id="clip0_9_1638">
<rect width="24" height="16" fill="white"/>
</clipPath>
</defs>
</svg>
