<svg width="98" height="65" viewBox="0 0 98 65" fill="none" xmlns="http://www.w3.org/2000/svg">
<g clip-path="url(#clip0_2144_628)">
<path d="M0.499817 8.14053C0.499817 3.66702 4.12631 0.0405273 8.59982 0.0405273H89.5998C94.0733 0.0405273 97.6998 3.66702 97.6998 8.14053V56.7405C97.6998 61.214 94.0733 64.8405 89.5998 64.8405H8.59982C4.12631 64.8405 0.499817 61.214 0.499817 56.7405V8.14053Z" fill="#18191B"/>
<path d="M46.9079 34.6172V43.9803H43.9168V20.8575H51.8497C52.7966 20.8379 53.738 21.0046 54.6197 21.3482C55.5013 21.6918 56.3058 22.2054 56.9865 22.8593C57.6741 23.4735 58.2214 24.2268 58.5915 25.0685C58.9616 25.9102 59.146 26.8208 59.1323 27.7392C59.152 28.6625 58.9704 29.579 58.6 30.4261C58.2297 31.2732 57.6793 32.0307 56.9865 32.6468C55.5993 33.9604 53.8871 34.6166 51.8497 34.6153H46.9079V34.6172ZM46.9079 23.7043V31.7759H51.924C52.4739 31.7921 53.0211 31.6942 53.5308 31.4883C54.0404 31.2824 54.5011 30.9732 54.8835 30.5804C55.2639 30.2132 55.5662 29.7739 55.7727 29.2886C55.9792 28.8032 56.0855 28.2817 56.0855 27.7549C56.0855 27.228 55.9792 26.7065 55.7727 26.2212C55.5662 25.7359 55.2639 25.2966 54.8835 24.9293C54.5059 24.5282 54.0468 24.2114 53.5365 23.9999C53.0263 23.7884 52.4767 23.687 51.924 23.7024H46.9079V23.7043Z" fill="#E4E5E7"/>
<path d="M66.0252 27.6431C68.236 27.6431 69.9811 28.2298 71.2605 29.4032C72.5399 30.5765 73.179 32.1853 73.1778 34.2296V43.9801H70.3168V41.7846H70.1867C68.9482 43.5927 67.3009 44.4967 65.2449 44.4967C63.4899 44.4967 62.0216 43.9801 60.8401 42.947C60.273 42.4728 59.8197 41.8789 59.5131 41.2086C59.2065 40.5384 59.0543 39.8086 59.0677 39.0726C59.0677 37.4355 59.6907 36.1335 60.9367 35.1668C62.1826 34.2 63.846 33.7154 65.9268 33.713C67.7028 33.713 69.1655 34.0358 70.3149 34.6816V34.0026C70.3183 33.5008 70.2092 33.0046 69.9955 32.5498C69.7818 32.0951 69.4689 31.6933 69.0795 31.3736C68.2885 30.6649 67.2577 30.2782 66.1924 30.2906C64.5216 30.2906 63.1995 30.9904 62.226 32.3901L59.5916 30.7426C61.0407 28.6762 63.1852 27.6431 66.0252 27.6431ZM62.1554 39.1371C62.1534 39.5152 62.2424 39.8882 62.4149 40.2252C62.5875 40.5621 62.8387 40.8533 63.1475 41.0743C63.809 41.5911 64.6301 41.8649 65.4716 41.8492C66.7338 41.8471 67.9437 41.3482 68.8361 40.4618C69.8269 39.5356 70.3223 38.449 70.3223 37.2018C69.3897 36.4638 68.0892 36.0948 66.4209 36.0948C65.2059 36.0948 64.1928 36.3857 63.3815 36.9675C62.5623 37.5579 62.1554 38.2755 62.1554 39.1371Z" fill="#E4E5E7"/>
<path d="M89.5993 28.1597L79.6117 50.9541H76.524L80.2303 42.9783L73.663 28.1597H76.9141L81.6608 39.5246H81.7259L86.3425 28.1597H89.5993Z" fill="#E4E5E7"/>
<path d="M34.8212 32.599C34.8223 31.6937 34.7453 30.7901 34.5908 29.8979H21.9763V35.014H29.2013C29.0535 35.8311 28.7406 36.61 28.2814 37.3038C27.8223 37.9976 27.2264 38.5918 26.5298 39.0508V42.3717H30.8418C33.3666 40.06 34.8212 36.6413 34.8212 32.599Z" fill="#4285F4"/>
<path d="M21.9752 45.5802C25.585 45.5802 28.6243 44.4031 30.8407 42.3737L26.5287 39.0527C25.3286 39.8608 23.7829 40.3221 21.9752 40.3221C18.4863 40.3221 15.5249 37.9864 14.466 34.8389H10.0239V38.2613C11.1373 40.4613 12.8444 42.3108 14.9548 43.6032C17.0652 44.8956 19.4958 45.5801 21.9752 45.5802Z" fill="#34A853"/>
<path d="M14.4665 34.8386C13.9066 33.1893 13.9066 31.4032 14.4665 29.7539V26.3315H10.0244C9.08786 28.1823 8.6001 30.2249 8.6001 32.2963C8.6001 34.3676 9.08786 36.4102 10.0244 38.261L14.4665 34.8386Z" fill="#FBBC04"/>
<path d="M21.9752 24.2707C23.8828 24.2398 25.726 24.9555 27.1065 26.2633L30.9243 22.4719C28.5034 20.2138 25.2963 18.9741 21.9752 19.0126C19.4958 19.0127 17.0652 19.6972 14.9548 20.9896C12.8444 22.282 11.1373 24.1315 10.0239 26.3315L14.466 29.7539C15.5249 26.6064 18.4863 24.2707 21.9752 24.2707Z" fill="#EA4335"/>
</g>
<defs>
<clipPath id="clip0_2144_628">
<rect width="97.2" height="64.8" fill="white" transform="translate(0.5 0.0405273)"/>
</clipPath>
</defs>
</svg>
