<svg width="98" height="65" viewBox="0 0 98 65" fill="none" xmlns="http://www.w3.org/2000/svg">
<g clip-path="url(#clip0_2144_621)">
<path d="M0.299805 8.14004C0.299805 3.66653 3.9263 0.0400391 8.39981 0.0400391H89.3998C93.8733 0.0400391 97.4998 3.66653 97.4998 8.14004V56.74C97.4998 61.2135 93.8733 64.84 89.3998 64.84H8.3998C3.9263 64.84 0.299805 61.2135 0.299805 56.74V8.14004Z" fill="#311E02"/>
<path d="M59.0421 13.2582L38.1258 13.3301L38.7596 51.6225L59.6759 51.5506L59.0421 13.2582Z" fill="#FF5F00"/>
<path d="M39.5039 32.5532C39.3745 24.7648 42.8634 17.8445 48.3282 13.3557C44.2033 10.1189 39.032 8.17244 33.4262 8.19164C20.1458 8.23713 9.58257 19.1776 9.80653 32.6549C10.0305 46.1322 20.9561 56.9991 34.2366 56.9536C39.8424 56.9344 44.9484 54.9528 48.9652 51.6881C43.353 47.3049 39.6334 40.3416 39.5039 32.5532Z" fill="#EB001B"/>
<path d="M87.9968 32.225C88.2208 45.7023 77.6575 56.6428 64.3771 56.6883C58.7713 56.7075 53.6 54.7611 49.4751 51.5242C55.0067 47.0352 58.4289 40.1151 58.2994 32.3267C58.17 24.5383 54.4515 17.6428 48.8381 13.1919C52.855 9.92714 57.961 7.94551 63.5668 7.92631C76.8472 7.88083 87.774 18.8155 87.9968 32.225Z" fill="#F79E1B"/>
</g>
<defs>
<clipPath id="clip0_2144_621">
<rect width="97.2" height="64.8" fill="white" transform="translate(0.300003 0.0405273)"/>
</clipPath>
</defs>
</svg>
