<svg width="98" height="66" viewBox="0 0 98 66" fill="none" xmlns="http://www.w3.org/2000/svg">
<g clip-path="url(#clip0_2144_642)">
<path d="M0.399307 8.93984C0.399307 4.46634 4.0258 0.839844 8.49931 0.839844H89.4993C93.9728 0.839844 97.5993 4.46634 97.5993 8.93984V57.5398C97.5993 62.0134 93.9728 65.6398 89.4993 65.6398H8.49931C4.0258 65.6398 0.399307 62.0134 0.399307 57.5398V8.93984Z" fill="#07202C"/>
<path d="M65.7179 21.1553C65.7179 21.4152 65.7179 21.6751 65.458 21.935C63.3789 32.3307 56.6217 35.7093 47.7853 35.7093H43.3671C42.3275 35.7093 41.288 36.489 41.288 37.5285L38.9489 52.0826L38.4292 56.2408C38.4292 57.0205 38.9489 57.5403 39.4687 57.5403H47.5254C48.565 57.5403 49.3447 56.7606 49.3447 55.9809V55.4612L50.904 46.105V45.5852C51.1639 44.5457 51.9436 44.0259 52.7233 44.0259H54.0228C61.8195 44.0259 67.7971 40.9072 69.3564 31.8109C70.1361 27.9125 69.6163 24.7938 67.7971 22.7146C67.2773 22.1949 66.4976 21.6751 65.7179 21.1553Z" fill="#2199D6"/>
<path d="M63.6375 20.3759C63.3776 20.3759 63.1177 20.116 62.5979 20.116C62.338 20.116 61.8182 19.8561 61.5583 19.8561C60.2589 19.5962 58.9594 19.5962 57.6599 19.5962H45.7049C45.445 19.5962 45.1851 19.5962 44.9252 19.8561C44.4054 20.116 43.8856 20.6358 43.8856 21.1555L41.2867 37.2689V37.7887C41.5466 36.7491 42.3263 35.9695 43.3658 35.9695H47.784C56.6204 35.9695 63.3776 32.331 65.4567 22.1951C65.4567 21.9352 65.4568 21.6753 65.7166 21.4154C65.1969 21.1556 64.6771 20.8957 64.1573 20.6358C63.8974 20.3759 63.6375 20.3759 63.6375 20.3759Z" fill="#252C5E"/>
<path d="M43.8857 21.1554C43.8857 20.6356 44.4054 20.1158 44.9252 19.8559C45.1851 19.8559 45.445 19.596 45.7049 19.596H57.66C58.9594 19.596 60.5188 19.596 61.5584 19.8559C61.8183 19.8559 62.3381 19.8559 62.598 20.1158C62.8579 20.1158 63.1177 20.3757 63.6375 20.3757C63.8974 20.3757 63.8974 20.3757 64.1573 20.6356C64.6771 20.8955 65.1969 21.1554 65.7167 21.4153C66.2365 17.5169 65.7167 14.918 63.6375 12.5789C61.2985 9.98 57.1402 8.94043 51.9423 8.94043H36.6087C35.5691 8.94043 34.5295 9.7201 34.5295 10.7597L28.2921 50.7832C28.2921 51.5629 28.8119 52.3426 29.5915 52.3426H38.9477L41.2867 37.2688L43.8857 21.1554Z" fill="#2C3E8B"/>
</g>
<defs>
<clipPath id="clip0_2144_642">
<rect width="97.2" height="64.8" fill="white" transform="translate(0.399994 0.840332)"/>
</clipPath>
</defs>
</svg>
