<svg width="29" height="30" viewBox="0 0 29 30" fill="none" xmlns="http://www.w3.org/2000/svg">
<path d="M3.79993 7.64082H6.19993M6.19993 7.64082H25.3999M6.19993 7.64082V24.4408C6.19993 25.0773 6.45278 25.6878 6.90287 26.1379C7.35296 26.588 7.96341 26.8408 8.59993 26.8408H20.5999C21.2364 26.8408 21.8469 26.588 22.297 26.1379C22.7471 25.6878 22.9999 25.0773 22.9999 24.4408V7.64082M9.79993 7.64082V5.24082C9.79993 4.6043 10.0528 3.99385 10.5029 3.54376C10.953 3.09368 11.5634 2.84082 12.1999 2.84082H16.9999C17.6364 2.84082 18.2469 3.09368 18.697 3.54376C19.1471 3.99385 19.3999 4.6043 19.3999 5.24082V7.64082M12.1999 13.6408V20.8408M16.9999 13.6408V20.8408" stroke="white" stroke-width="2.4" stroke-linecap="round" stroke-linejoin="round"/>
</svg>
