<svg width="98" height="65" viewBox="0 0 98 65" fill="none" xmlns="http://www.w3.org/2000/svg">
<g clip-path="url(#clip0_2144_613)">
<path d="M0.0999908 8.14004C0.0999908 3.66653 3.72648 0.0400391 8.19999 0.0400391H89.2C93.6735 0.0400391 97.3 3.66653 97.3 8.14004V56.74C97.3 61.2135 93.6735 64.84 89.2 64.84H8.19999C3.72648 64.84 0.0999908 61.2135 0.0999908 56.74V8.14004Z" fill="#0C1727"/>
<path d="M83.7517 20.3613H78.6596C77.1201 20.3613 75.9359 20.835 75.2254 22.3745L65.5148 44.5192H72.3833C72.3833 44.5192 73.5675 41.5587 73.8043 40.8482C74.5148 40.8482 81.2648 40.8482 82.2122 40.8482C82.449 41.6771 83.0411 44.4008 83.0411 44.4008H89.199L83.7517 20.3613ZM75.699 35.8745C76.2911 34.4534 78.3043 29.1245 78.3043 29.1245C78.3043 29.2429 78.8964 27.7034 79.1333 26.8745L79.6069 29.0061C79.6069 29.0061 80.9096 34.8087 81.1464 35.9929H75.699V35.8745Z" fill="#3362AB"/>
<path d="M65.9896 36.5853C65.9896 41.559 61.4896 44.8748 54.5027 44.8748C51.5422 44.8748 48.7001 44.2827 47.1606 43.5721L48.108 38.1248L48.937 38.48C51.0685 39.4274 52.4896 39.7827 55.0948 39.7827C56.9896 39.7827 59.0027 39.0721 59.0027 37.4142C59.0027 36.3485 58.1738 35.6379 55.5685 34.4537C53.0817 33.2695 49.7659 31.3748 49.7659 27.9406C49.7659 23.2037 54.3843 20.0063 60.8975 20.0063C63.3843 20.0063 65.5159 20.48 66.8185 21.0721L65.8712 26.2827L65.3975 25.809C64.2133 25.3353 62.6738 24.8616 60.4238 24.8616C57.9369 24.98 56.7527 26.0458 56.7527 26.9932C56.7527 28.059 58.1738 28.8879 60.4238 29.9537C64.2133 31.73 65.9896 33.7432 65.9896 36.5853Z" fill="#3362AB"/>
<path d="M8.19921 20.5987L8.31763 20.125H18.5018C19.9229 20.125 20.9887 20.5987 21.3439 22.1382L23.5939 32.7961C21.3439 27.1118 16.1334 22.4934 8.19921 20.5987Z" fill="#F9B50B"/>
<path d="M37.9239 20.3616L27.6213 44.4011H20.6344L14.7134 24.2695C18.9765 26.9932 22.5292 31.2563 23.8318 34.2168L24.5423 36.7037L30.9371 20.2432H37.9239V20.3616Z" fill="#3362AB"/>
<path d="M40.6469 20.2432H47.16L43.0153 44.4011H36.5021L40.6469 20.2432Z" fill="#3362AB"/>
</g>
<defs>
<clipPath id="clip0_2144_613">
<rect width="97.2" height="64.8" fill="white" transform="translate(0.0999908 0.0405273)"/>
</clipPath>
</defs>
</svg>
