<?xml version="1.0" encoding="iso-8859-1"?>
<!-- Uploaded to: SVG Repo, www.svgrepo.com, Generator: SVG Repo Mixer Tools -->
<svg fill="#000000" height="800px" width="800px" version="1.1" id="Layer_1" xmlns="http://www.w3.org/2000/svg" xmlns:xlink="http://www.w3.org/1999/xlink" 
	 viewBox="0 0 512.001 512.001" xml:space="preserve">
<g>
	<g>
		<path d="M400.876,367.304H277.591c13.422,39.686,14.752,83.07,3.319,123.451c-1.424,5.032-0.407,10.446,2.75,14.62
			c3.152,4.174,8.082,6.625,13.315,6.625h84.391c5.234,0,10.163-2.451,13.315-6.625c3.158-4.174,4.174-9.587,2.75-14.62
			C385.993,450.362,387.432,406.995,400.876,367.304z"/>
	</g>
</g>
<g>
	<g>
		<path d="M489.473,66.783c-41.626,0.094-78.108,22.135-98.742,55.07c-3.517-33.294,0.996-67.153,13.716-98.956
			c2.06-5.147,1.429-10.972-1.674-15.559C399.665,2.75,394.485,0,388.947,0h-99.555c-5.539,0-10.717,2.75-13.826,7.337
			c-3.103,4.587-3.733,10.412-1.674,15.559c18.547,46.374,19.603,97.079,3.631,144.06h78.216c8.572,0,16.091,6.282,17.028,14.802
			c1.106,10.072-6.745,18.589-16.592,18.589h-78.652c14.782,43.479,14.782,90.087,0,133.565h123.393
			c-14.844-43.669-14.88-90.496,0.101-134.145c58.958-5.763,105.22-55.501,105.417-115.902
			C506.466,74.421,498.917,66.761,489.473,66.783z M408.404,164.776c7.164-30.935,31.565-55.337,62.5-62.5
			C463.741,133.21,439.338,157.613,408.404,164.776z"/>
	</g>
</g>
<g>
	<g>
		<path d="M156.263,367.305c-8.572,0-16.091-6.282-17.028-14.802c-1.105-10.073,6.746-18.59,16.592-18.59h78.148
			c-14.791-43.485-14.786-90.083-0.014-133.565H110.77c9.652,28.437,12.986,58.244,10.001,87.638
			c-20.735-32.499-56.997-54.175-98.305-54.246c-9.23-0.016-16.892,7.368-16.899,16.599
			C5.517,310.764,51.57,360.646,110.415,366.687c13.62,39.852,15.029,83.477,3.536,124.07c-1.424,5.032-0.407,10.446,2.75,14.62
			c3.152,4.174,8.082,6.625,13.315,6.625h84.391c5.234,0,10.163-2.451,13.315-6.625c3.158-4.174,4.174-9.587,2.75-14.62
			c-11.437-40.395-10-83.76,3.445-123.451H156.263z M41.099,269.232c30.935,7.164,55.337,31.565,62.5,62.5
			C72.664,324.569,48.263,300.167,41.099,269.232z"/>
	</g>
</g>
<g>
	<g>
		<path d="M235.816,7.337C232.708,2.75,227.528,0,221.991,0h-99.555c-5.539,0-10.718,2.75-13.826,7.337
			c-3.103,4.587-3.733,10.412-1.674,15.559c18.547,46.374,19.604,97.079,3.631,144.06h123.414
			c-15.993-46.986-15.041-97.678,3.509-144.06C239.55,17.75,238.919,11.924,235.816,7.337z"/>
	</g>
</g>
</svg>