<?xml version="1.0" encoding="utf-8"?><!-- Uploaded to: SVG Repo, www.svgrepo.com, Generator: SVG Repo Mixer Tools -->
<svg width="800px" height="800px" viewBox="-20 0 190 190" fill="none" xmlns="http://www.w3.org/2000/svg">
<path fill-rule="evenodd" clip-rule="evenodd" d="M104.32 104.69C105.87 102.12 105.88 98.7701 105.88 95.4601C105.88 79.8801 89 83.0001 89 83.0001C89 83.0001 89.38 70.1201 75.57 70.1201C62.82 70.1201 61.39 82.8301 61.39 82.8301C61.39 82.8301 44.39 81.2501 44.39 96.9101C44.3687 99.3494 44.9565 101.755 46.1 103.91L40.74 106.37C38.9248 103.239 37.9788 99.6795 38 96.0601C38 86.4201 44.7 76.3501 57 76.3501C59.59 68.2401 66.7 63.1001 75.62 63.1001C86.13 63.1001 91.81 69.6201 93.86 76.3401C104.79 76.3401 112.42 85.5301 112.42 95.6901C112.49 100.114 111.24 104.459 108.83 108.17L104.32 104.69ZM68.1 121.52C68.18 103.33 76.1 105.27 77.1 93.3501L80.2 92.9001C86.1 101.97 87.74 110.62 83.42 121.97C89.18 120.05 90.27 110.89 105.33 111.97L106.69 112.5C106.69 112.5 102.55 131.19 80.55 134.77L78.2 148.07L66 146L69.7 135C51.85 132.49 43.43 111.7 43.43 111.7L45.75 109.4C53 115.23 60.59 111.15 68.1 121.52Z" fill="#000000"/>
</svg>