<?xml version="1.0" encoding="UTF-8" standalone="no"?>
<!-- Uploaded to: SVG Repo, www.svgrepo.com, Generator: SVG Repo Mixer Tools -->

<svg
fill="#000000"
width="48"
height="48"
viewBox="0 0 0.96 0.96"
version="1.1"
id="svg1"
sodipodi:docname="offerIcon.svg"
inkscape:version="1.3.2 (091e20e, 2023-11-25, custom)"
xmlns:inkscape="http://www.inkscape.org/namespaces/inkscape"
xmlns:sodipodi="http://sodipodi.sourceforge.net/DTD/sodipodi-0.dtd"
xmlns="http://www.w3.org/2000/svg"
xmlns:svg="http://www.w3.org/2000/svg">
<defs
   id="defs1" />
<sodipodi:namedview
   id="namedview1"
   pagecolor="#ffffff"
   bordercolor="#000000"
   borderopacity="0.25"
   inkscape:showpageshadow="2"
   inkscape:pageopacity="0.0"
   inkscape:pagecheckerboard="0"
   inkscape:deskcolor="#d1d1d1"
   inkscape:zoom="38.919157"
   inkscape:cx="14.709979"
   inkscape:cy="16.444344"
   inkscape:window-width="2880"
   inkscape:window-height="1676"
   inkscape:window-x="-12"
   inkscape:window-y="-12"
   inkscape:window-maximized="1"
   inkscape:current-layer="svg1" />
<path
   d="m 0.90049492,0.47999543 0.053054,-0.091694 a 0.0480562,0.04805774 0 0 0 -0.01754,-0.065647 l -0.0917878,-0.053056 v -0.105727 a 0.0480562,0.04805774 0 0 0 -0.048056,-0.048058 h -0.1056758 l -0.053006,-0.091742 a 0.04844065,0.0484422 0 0 0 -0.02917,-0.022395 0.04771981,0.04772133 0 0 0 -0.036475,0.00481 l -0.091787,0.053056 -0.091787,-0.053104 a 0.0480562,0.04805774 0 0 0 -0.065645,0.017589 l -0.053054,0.09179 h -0.1056758 a 0.0480562,0.04805774 0 0 0 -0.048056,0.048058 v 0.105679 l -0.091787,0.053056 a 0.04796009,0.04796162 0 0 0 -0.01754,0.065695 l 0.053053,0.091694 -0.053054,0.091694 a 0.04824842,0.04824997 0 0 0 0.017492,0.065695 l 0.091787,0.053056 v 0.105679 a 0.0480562,0.04805774 0 0 0 0.048056,0.048058 h 0.1057236 l 0.053054,0.09179 a 0.04853676,0.04853831 0 0 0 0.041617,0.024029 c 0.00836,0 0.016676,-0.00221 0.024076,-0.00649 l 0.091691,-0.053056 0.091787,0.053056 a 0.04810426,0.04810579 0 0 0 0.065645,-0.017541 l 0.053006,-0.09179 h 0.1056755 a 0.0480562,0.04805774 0 0 0 0.048056,-0.048058 v -0.105679 l 0.091787,-0.053056 a 0.0480562,0.04805774 0 0 0 0.01754,-0.065695 z m -0.5406323,-0.2407693 a 0.07210834,0.07211065 0 1 1 -4.8e-5,0.1442213 0.07210834,0.07211065 0 0 1 4.8e-5,-0.1442213 z m 0.014417,0.4613543 -0.07689,-0.057621 0.2883372,-0.3844619 0.07689,0.057621 z m 0.2258641,0.019223 a 0.07210834,0.07211065 0 1 1 4.81e-5,-0.1442213 0.07210834,0.07211065 0 0 1 -4.81e-5,0.1442213 z"
   id="path1"
   style="stroke-width:0.0480569;fill:#ff9a62;fill-opacity:1" />
</svg>
