<?xml version="1.0" encoding="iso-8859-1"?>
<!-- Uploaded to: SVG Repo, www.svgrepo.com, Generator: SVG Repo Mixer Tools -->
<svg fill="#000000" height="800px" width="800px" version="1.1" id="Layer_1" xmlns="http://www.w3.org/2000/svg" xmlns:xlink="http://www.w3.org/1999/xlink" 
	 viewBox="0 0 512 512" xml:space="preserve">
<g>
	<g>
		<path d="M387.757,135.208c-11.352-12.443-24.62-23.507-39.707-32.706c-38.988-23.776-83.463-31.118-125.296-24.006
			c-3.704,0.63-7.386,1.38-11.043,2.235c-4.924,1.151-9.801,2.499-14.616,4.054c-23.779,7.675-46.053,20.225-65.169,37.24
			c-13.116,11.674-24.749,25.442-34.353,41.191c-3.522,5.776-6.671,11.675-9.478,17.665c-38.896,82.99-9.828,184.016,70.193,232.811
			c1.129,0.688,2.269,1.336,3.408,1.997c26.154,15.191,54.623,23.134,83.032,24.403c2.715,0.121,5.43,0.205,8.142,0.205
			c16.26,0,32.418-2.194,48.03-6.43c10.6-2.876,20.946-6.694,30.897-11.437c0.669-0.319,1.335-0.649,2-0.976
			c30.004-14.749,56.309-37.88,74.968-68.477c10.851-17.795,18.269-36.733,22.462-56.04
			C443.699,239.525,427.569,178.847,387.757,135.208z M180.524,334.187l9.616,56.197c-4.507-2.158-8.931-4.551-13.255-7.187
			c-64.901-39.576-88.116-121.887-55.602-188.935l42.723,24.451c14.025,8.026,21.067,24.577,17.123,40.249
			c-1.038,4.127,0.087,8.438,3.012,11.531l1.332,1.409c12.892,13.632,13.137,35.216,0.556,49.139l-2.489,2.755
			C180.979,326.632,179.879,330.42,180.524,334.187z M169.361,172.174c-1.797,1.011-3.81,1.53-5.839,1.53
			c-0.973,0-1.948-0.119-2.905-0.36l-22.695-5.711c24.638-31.438,60.347-50.495,98.122-54.982l-5.199,20.661
			c-0.797,3.167-2.86,5.869-5.707,7.47L169.361,172.174z M287.686,400.498c-18.086,4.383-36.468,5.286-54.368,2.845l-2.727-16.645
			c-0.876-5.349,1.969-10.615,6.924-12.811l11.474-5.085c19.035-8.437,41.273-2.016,52.877,15.272l6.126,9.128l1.151,0.333
			C302.24,396.371,295.075,398.706,287.686,400.498z M392.565,303.262l-7.593-7.268c-5.068-4.851-11.709-7.399-18.734-7.175
			c-7.012,0.224-13.488,3.192-18.237,8.356c-7.394,8.043-17.397,13.494-28.166,15.347l-29.958,5.155
			c-1.973,0.339-3.954,0.507-5.921,0.507c-8.155,0-16.09-2.871-22.422-8.235c-7.861-6.658-12.338-16.385-12.284-26.686l0.139-26.968
			c0.03-5.627-1.817-11.202-5.199-15.699l-15.554-20.686c-2.951-3.923-3.19-9.255-0.604-13.427l24.575-39.656
			c2.084-3.364,5.705-5.472,9.659-5.626l56.926-2.209l18.698-20.434C390.733,175.959,411.983,243.332,392.565,303.262z"/>
	</g>
</g>
<g>
	<g>
		<path d="M440.425,68.991l-4.521,4.884C387.68,26.236,323.802,0,256,0C193.842,0,133.905,22.553,87.231,63.503
			C31.795,112.145,0,182.307,0,256c0,9.864,7.997,17.86,17.86,17.86c9.864,0,17.86-7.997,17.86-17.86
			c0-63.411,27.361-123.786,75.069-165.645C150.945,55.123,202.515,35.721,256,35.721c58.419,0,113.453,22.633,154.967,63.727
			c0.223,0.22,0.461,0.413,0.692,0.619l-5.301,5.727c-6.694,7.232-1.116,18.93,8.717,18.278l32.894-2.177
			c5.586-0.369,9.984-4.912,10.173-10.506l1.173-34.627C459.657,66.674,447.282,61.583,440.425,68.991z"/>
	</g>
</g>
<g>
	<g>
		<path d="M494.14,238.14c-9.864,0-17.86,7.997-17.86,17.86c0,54.043-19.761,106.017-55.641,146.35
			C378.841,449.334,318.833,476.279,256,476.279c-53.481,0-105.048-19.4-145.202-54.627c-0.652-0.572-1.343-1.068-2.049-1.529
			l4.52-4.883c1.192-1.288,1.988-2.72,2.448-4.196c2.117-6.813-3.084-14.618-11.165-14.084l-17.784,1.176l-15.11,1
			c-5.586,0.369-9.984,4.912-10.173,10.506l-1.173,34.627c-0.342,10.09,12.033,15.181,18.89,7.773l5.646-6.1
			c0.701,0.912,1.497,1.773,2.395,2.56C133.913,489.451,193.847,512,256,512c73.022,0,142.758-31.312,191.326-85.906
			C489.031,379.212,512,318.807,512,256C512,246.136,504.003,238.14,494.14,238.14z"/>
	</g>
</g>
</svg>